<svg xmlns="http://www.w3.org/2000/svg" height="512pt" viewBox="0 0 512 512" width="512pt"><path d="m497 151h-46v-136c0-8.285156-6.714844-15-15-15h-90c-8.285156 0-15 6.714844-15 15v136h-60c0-22.566406 0-83.863281 0-106 0-24.8125-20.1875-45-45-45s-45 20.1875-45 45v106h-61c0-33.085938-26.914062-60-60-60s-60 26.914062-60 60v301c0 33.085938 26.914062 60 60 60h437c8.285156 0 15-6.714844 15-15v-331c0-8.285156-6.714844-15-15-15zm-76-121v392h-60v-30h15c8.285156 0 15-6.714844 15-15s-6.714844-15-15-15h-15v-30h15c8.285156 0 15-6.714844 15-15s-6.714844-15-15-15h-15v-31h15c8.285156 0 15-6.714844 15-15s-6.714844-15-15-15h-15v-30h15c8.285156 0 15-6.714844 15-15s-6.714844-15-15-15h-15v-14.882812c0-.039063.007812-.078126.007812-.117188s-.007812-.078125-.007812-.117188v-14.882812h15c8.285156 0 15-6.714844 15-15s-6.714844-15-15-15h-15v-31h15c8.285156 0 15-6.714844 15-15s-6.714844-15-15-15h-15v-30zm-180 302h-30c0-12.0625 0-235.78125 0-242h30zm-5.8125 30-9.1875 27.566406-9.1875-27.566406zm-9.1875-332c8.269531 0 15 6.730469 15 15v15h-30v-15c0-8.269531 6.730469-15 15-15zm-166 91c16.542969 0 30 13.457031 30 30v249.070312c-8.832031-5.121093-19.074219-8.070312-30-8.070312s-21.167969 2.949219-30 8.070312v-249.070312c0-16.542969 13.457031-30 30-30zm422 361h-422c-16.542969 0-30-13.457031-30-30s13.457031-30 30-30 30 13.457031 30 30c0 8.285156 6.714844 15 15 15s15-6.714844 15-15v-271h61v166c0 1.589844.308594 3.359375.769531 4.742188l30 90c2.042969 6.125 7.773438 10.257812 14.230469 10.257812s12.1875-4.132812 14.230469-10.257812l30-90c.011719-.035157.019531-.070313.03125-.109376.449219-1.386718.738281-3.074218.738281-4.632812v-166h60v256c0 8.285156 6.714844 15 15 15h90c8.285156 0 15-6.714844 15-15v-256h31zm0 0"></path></svg>