<svg xmlns="http://www.w3.org/2000/svg" height="512" viewBox="0 0 64 64" width="512"><g id="Portfolio-Resume-Application-Personal_Profile-Curriculum_Vitae" data-name="Portfolio-Resume-Application-Personal Profile-Curriculum Vitae"><path d="m48 57a3 3 0 0 1 -3 3h-36a3 3 0 0 1 -3-3v-50a3 3 0 0 1 3-3h31v5a3 3 0 0 0 3 3h5v1h2v-2a1 1 0 0 0 -.293-.707l-8-8a1 1 0 0 0 -.707-.293h-32a5.006 5.006 0 0 0 -5 5v50a5.006 5.006 0 0 0 5 5h36a5.006 5.006 0 0 0 5-5v-27h-2zm-6-48v-3.586l4.586 4.586h-3.586a1 1 0 0 1 -1-1z"></path><path d="m29.893 20.747a3.976 3.976 0 0 0 1.107-2.747v-2a4 4 0 0 0 -8 0v2a3.976 3.976 0 0 0 1.107 2.747 6 6 0 0 0 -3.107 5.253v1a1 1 0 0 0 1 1h10a1 1 0 0 0 1-1v-1a6 6 0 0 0 -3.107-5.253zm-2.893 1.253a3.953 3.953 0 0 1 1.51.3 1.98 1.98 0 0 1 -3.02 0 3.953 3.953 0 0 1 1.51-.3zm0-8a2 2 0 0 1 2 2h-.171a1 1 0 0 1 -.708-.293l-.414-.414a1 1 0 0 0 -1.414 0l-.414.414a1 1 0 0 1 -.708.293h-.171a2 2 0 0 1 2-2zm-2 4h.171a2.978 2.978 0 0 0 1.829-.621 2.978 2.978 0 0 0 1.829.621h.171a2 2 0 0 1 -4 0zm-2 8a3.959 3.959 0 0 1 .89-2.484 4 4 0 0 0 6.22 0 3.959 3.959 0 0 1 .89 2.484z"></path><path d="m58 14h-16a2 2 0 0 0 -2 2v2.323l-4.372 1.748a1 1 0 0 0 0 1.858l4.372 1.748v2.323a2 2 0 0 0 2 2h16a2 2 0 0 0 2-2v-10a2 2 0 0 0 -2-2zm0 12h-16v-3a1 1 0 0 0 -.628-.929l-2.68-1.071 2.68-1.071a1 1 0 0 0 .628-.929v-3h16z"></path><path d="m44 18h12v2h-12z"></path><path d="m44 22h12v2h-12z"></path><path d="m12 34h6v2h-6z"></path><path d="m20 34h22v2h-22z"></path><path d="m20 38h22v2h-22z"></path><path d="m12 42h6v2h-6z"></path><path d="m20 42h22v2h-22z"></path><path d="m20 46h22v2h-22z"></path><path d="m12 50h6v2h-6z"></path><path d="m20 50h22v2h-22z"></path><path d="m20 54h22v2h-22z"></path></g></svg>