<svg xmlns="http://www.w3.org/2000/svg" id="Layer_1" height="512" viewBox="0 0 512 512" width="512"><g><g><path d="m296.002 194c5.522 0 10-4.477 10-10v-.007c0-5.523-4.478-9.997-10-9.997s-10 4.481-10 10.004 4.477 10 10 10z"></path><path d="m225.999 184v-.007c0-5.523-4.478-9.997-10-9.997s-10 4.481-10 10.004 4.478 10 10 10 10-4.478 10-10z"></path><path d="m288.351 226.944c3.905-3.905 3.905-10.237 0-14.143-3.906-3.905-10.236-3.905-14.143 0-4.863 4.864-11.33 7.542-18.208 7.542s-13.344-2.678-18.207-7.542c-3.906-3.905-10.236-3.905-14.143 0-3.905 3.905-3.905 10.237 0 14.143 8.641 8.641 20.13 13.399 32.35 13.399 12.221 0 23.71-4.759 32.351-13.399z"></path><path d="m456 369.999h-62.858c-8.417-40.564-34.45-75.209-70.652-94.811 25.01-17.687 42.887-45.028 47.825-76.668 14.566-2.206 25.766-14.811 25.766-29.983 0-7.964-3.091-15.217-8.13-20.634v-15.952c0-72.758-59.193-131.951-131.951-131.951s-131.95 59.193-131.95 131.951v15.952c-5.039 5.417-8.13 12.669-8.13 20.634 0 15.172 11.199 27.777 25.766 29.983 4.938 31.64 22.815 58.982 47.826 76.668-36.202 19.603-62.236 54.247-70.653 94.811h-26.103v-59.528l3.503-3.503c4.075 1.941 8.499 2.918 12.925 2.918 7.683 0 15.365-2.924 21.214-8.773l14.143-14.142c5.65-5.651 8.763-13.185 8.763-21.213 0-8.029-3.112-15.563-8.763-21.213-11.698-11.696-30.73-11.698-42.427 0l-14.143 14.142c-9.218 9.218-11.165 22.99-5.854 34.14l-6.432 6.432c-1.875 1.875-2.929 4.418-2.929 7.071v63.67h-16.756c-5.522 0-10 4.477-10 10v60c0 5.523 4.478 10 10 10h11.485l8.644 53.593c.781 4.846 4.964 8.408 9.872 8.408h339.999c4.908 0 9.091-3.562 9.872-8.408l8.645-53.593h11.483c5.522 0 10-4.477 10-10v-60c0-5.524-4.478-10.001-10-10.001zm-353.887-97.17 14.143-14.142c1.873-1.874 4.384-2.905 7.07-2.905 2.688 0 5.198 1.031 7.071 2.905 1.873 1.873 2.905 4.384 2.905 7.071s-1.032 5.198-2.905 7.071l-14.143 14.142c-1.873 1.874-4.385 2.905-7.071 2.905s-5.197-1.032-7.07-2.905c-3.899-3.9-3.899-10.243 0-14.142zm270.533 97.17h-106.63v-58.204l20.042 20.879c2.23 2.324 5.443 3.43 8.632 2.974 3.188-.457 5.962-2.421 7.45-5.277l17.55-33.676c26.376 16.563 45.513 42.819 52.956 73.304zm-161.763-82.842c7.647 3.275 15.698 5.748 24.043 7.311l-13.739 14.313-11.105-21.284c.268-.112.532-.23.801-.34zm90.236 0c.272.111.539.23.81.343l-11.088 21.276-13.74-14.313c8.336-1.563 16.379-4.034 24.018-7.306zm-45.119-267.157c61.73 0 111.951 50.221 111.951 111.951v6.349c-.726-.052-1.456-.088-2.195-.088h-4.065c-29.947 0-56.125-16.178-63.659-39.342-1.206-3.708-4.458-6.377-8.33-6.837-3.868-.458-7.658 1.372-9.7 4.695-14.77 24.038-69.313 41.484-129.691 41.484h-4.064c-.739 0-1.469.036-2.195.088v-6.349c-.002-61.73 50.219-111.951 111.948-111.951zm-95.407 168.094c-.401-5.21-4.745-9.232-9.971-9.232h-4.377c-5.693 0-10.325-4.632-10.325-10.325s4.632-10.325 10.325-10.325h4.064c58.776 0 110.265-14.869 135.829-38.127 14.698 23.044 43.572 38.127 75.552 38.127h4.065c5.693 0 10.325 4.632 10.325 10.325s-4.632 10.325-10.325 10.325h-4.377c-5.225 0-9.569 4.022-9.971 9.232-3.813 49.523-45.71 88.317-95.388 88.328-.002 0-.003 0-.005 0-.003 0-.005 0-.008 0s-.005 0-.008 0c-49.684 0-91.592-38.798-95.405-88.328zm31.726 108.597 17.574 33.684c1.49 2.855 4.263 4.818 7.451 5.274.473.067.945.101 1.416.101 2.702 0 5.314-1.097 7.213-3.075l20.042-20.879v58.204h-106.66c7.444-30.488 26.584-56.746 52.964-73.309zm253.681 133.308h-145.003c-5.522 0-10 4.477-10 10s4.478 10 10 10h123.261l-6.775 42.001h-322.965l-6.775-42.001h123.254c5.522 0 10-4.477 10-10s-4.478-10-10-10h-144.997v-40h380z"></path><path d="m256 449.999c5.522 0 10-4.477 10-10s-4.478-10-10-10h-.007c-5.522 0-9.996 4.477-9.996 10s4.481 10 10.003 10z"></path></g></g></svg>